<svg xmlns="http://www.w3.org/2000/svg" width="1280" height="620" viewBox="0 0 1280 620" role="img" aria-labelledby="title desc">
  <title id="title">Róbert Kolesár / robert-kolesar Aureus Automation Lab profile banner</title>
  <desc id="desc">A dark public-safe architecture banner for Róbert Kolesár / robert-kolesar, Founder of Aureus Automation Lab and builder of Aureus Autonomous Operating Platform.</desc>
  <defs>
    <linearGradient id="bg" x1="0" x2="1" y1="0" y2="1"><stop stop-color="#071014"/><stop offset=".58" stop-color="#101724"/><stop offset="1" stop-color="#06251F"/></linearGradient>
    <filter id="shadow" x="-10%" y="-10%" width="120%" height="130%"><feDropShadow dx="0" dy="18" stdDeviation="18" flood-color="#000" flood-opacity=".34"/></filter>
  </defs>
  <rect width="1280" height="620" rx="34" fill="url(#bg)"/>
  <path d="M78 135H1202M78 255H1202M78 375H1202M78 495H1202" stroke="#1D2A36" stroke-width="1"/>
  <path d="M120 514C326 365 442 401 590 277S852 129 1134 100" fill="none" stroke="#54E5C0" stroke-width="3" opacity=".35"/>
  <g filter="url(#shadow)">
    <rect x="72" y="150" width="550" height="320" rx="28" fill="#101823" stroke="#2A3748"/>
    <text x="112" y="218" fill="#F7F8FA" font-family="Inter, Segoe UI, Arial, sans-serif" font-size="42" font-weight="850">Róbert Kolesár / robert-kolesar</text>
    <text x="112" y="260" fill="#B8F7D4" font-family="Inter, Segoe UI, Arial, sans-serif" font-size="22" font-weight="800">Founder, Aureus Automation Lab</text>
    <text x="112" y="294" fill="#D9EEFF" font-family="Inter, Segoe UI, Arial, sans-serif" font-size="21" font-weight="750">AI Product Systems Architect</text>
    <text x="112" y="345" fill="#F7F8FA" font-family="Inter, Segoe UI, Arial, sans-serif" font-size="26" font-weight="850">Builder of Aureus Autonomous</text>
    <text x="112" y="382" fill="#F7F8FA" font-family="Inter, Segoe UI, Arial, sans-serif" font-size="26" font-weight="850">Operating Platform</text>
    <g font-family="Inter, Segoe UI, Arial, sans-serif" font-size="13" font-weight="800">
      <rect x="112" y="420" width="124" height="34" rx="17" fill="#11231F" stroke="#4CE0B5"/><text x="174" y="442" text-anchor="middle" fill="#B8F7D4">public-safe</text>
      <rect x="252" y="420" width="124" height="34" rx="17" fill="#111B2A" stroke="#71C7FF"/><text x="314" y="442" text-anchor="middle" fill="#D9EEFF">reviewable</text>
      <rect x="392" y="420" width="142" height="34" rx="17" fill="#241B0F" stroke="#FFC857"/><text x="463" y="442" text-anchor="middle" fill="#FFF0BF">evidence-led</text>
    </g>
  </g>
  <g filter="url(#shadow)">
    <rect x="675" y="160" width="500" height="300" rx="28" fill="#0D151D" stroke="#2A3748"/>
    <text x="715" y="214" fill="#F7F8FA" font-family="Inter, Segoe UI, Arial, sans-serif" font-size="25" font-weight="850">AOP operating map</text>
    <text x="715" y="244" fill="#9FB0C3" font-family="Inter, Segoe UI, Arial, sans-serif" font-size="15">business process / workflow / validation / handoff</text>
    <g font-family="Inter, Segoe UI, Arial, sans-serif" font-size="13" font-weight="850">
      <rect x="715" y="292" width="96" height="54" rx="14" fill="#11231F" stroke="#4CE0B5"/><text x="763" y="324" text-anchor="middle" fill="#E5FFF0">process</text>
      <rect x="850" y="292" width="96" height="54" rx="14" fill="#111B2A" stroke="#71C7FF"/><text x="898" y="324" text-anchor="middle" fill="#E8F6FF">n8n</text>
      <rect x="985" y="292" width="116" height="54" rx="14" fill="#241B0F" stroke="#FFC857"/><text x="1043" y="324" text-anchor="middle" fill="#FFF4C7">validation</text>
      <path d="M811 319H850M946 319H985" stroke="#7ED6FF" stroke-width="4" stroke-linecap="round"/>
      <rect x="715" y="380" width="126" height="34" rx="17" fill="#151424" stroke="#A97CFF"/><text x="778" y="402" text-anchor="middle" fill="#F0E6FF">Supervisor</text>
      <rect x="860" y="380" width="126" height="34" rx="17" fill="#10211E" stroke="#4CE0B5"/><text x="923" y="402" text-anchor="middle" fill="#E5FFF0">Web Studio</text>
      <rect x="1005" y="380" width="126" height="34" rx="17" fill="#2A1115" stroke="#F76F8E"/><text x="1068" y="402" text-anchor="middle" fill="#FFE0E8">FinEcon</text>
    </g>
  </g>
</svg>
